/* XPM */
static char *_1505ec86b204a9faacae9bbd8a5319aJZ1yxLhH3dRN4QrP[] = {
/* columns rows colors chars-per-pixel */
"64 64 6 1 ",
"  c None",
". c #020202",
"X c #932220",
"o c #D2302E",
"O c gray79",
"+ c white",
/* pixels */
"                    ........................                    ",
"                    ........................                    ",
"                    ........................                    ",
"                    ........................                    ",
"            ........++++++++++++++++++++OOOO........            ",
"            ........++++++++++++++++++++OOOO........            ",
"            ........++++++++++++++++++++OOOO........            ",
"            ........++++++++++++++++++++OOOO........            ",
"        ........++++++++++++++++++++++++++++OOOO........        ",
"        ........++++++++++++++++++++++++++++OOOO........        ",
"        ........++++++++++++++++++++++++++++OOOO........        ",
"        ........++++++++++++++++++++++++++++OOOO........        ",
"    ........++++++++++++++++++++++++++++++++++++++++........    ",
"    ........++++++++++++++++++++++++++++++++++++++++........    ",
"    ........++++++++++++++++++++++++++++++++++++++++........    ",
"    ........++++++++++++++++++++++++++++++++++++++++........    ",
"    ....++++++++++++++++++++++++++++++++++++++++++++++++....    ",
"    ....++++++++++++++++++++++++++++++++++++++++++++++++....    ",
"    ....++++++++++++++++++++++++++++++++++++++++++++++++....    ",
"    ....++++++++++++++++++++++++++++++++++++++++++++++++....    ",
"....OOOO++++++++++++++++++++++++++++++++++++++++++++++++OOOO....",
"....OOOO++++++++++++++++++++++++++++++++++++++++++++++++OOOO....",
"....OOOO++++++++++++++++++++++++++++++++++++++++++++++++OOOO....",
"....OOOO++++++++++++++++++++++++++++++++++++++++++++++++OOOO....",
"....OOOOOOOO++++++++++++++++++++++++++++++++++++++++OOOOOOOO....",
"....OOOOOOOO++++++++++++++++++++++++++++++++++++++++OOOOOOOO....",
"....OOOOOOOO++++++++++++++++++++++++++++++++++++++++OOOOOOOO....",
"....OOOOOOOO++++++++++++++++++++++++++++++++++++++++OOOOOOOO....",
"....OOOOOOOOOOOOOOOOOOOOOOOOOOOOOOOOOOOOOOOOOOOOOOOOOOOOOOOO....",
"....OOOOOOOOOOOOOOOOOOOOOOOOOOOOOOOOOOOOOOOOOOOOOOOOOOOOOOOO....",
"....OOOOOOOOOOOOOOOOOOOOOOOOOOOOOOOOOOOOOOOOOOOOOOOOOOOOOOOO....",
"....OOOOOOOOOOOOOOOOOOOOOOOOOOOOOOOOOOOOOOOOOOOOOOOOOOOOOOOO....",
"....XXXXXXXXXXXXXXXXXXXXXXXXXXXXXXXXXXXXXXXXXXXXXXXXXXXXXXXX....",
"....XXXXXXXXXXXXXXXXXXXXXXXXXXXXXXXXXXXXXXXXXXXXXXXXXXXXXXXX....",
"....XXXXXXXXXXXXXXXXXXXXXXXXXXXXXXXXXXXXXXXXXXXXXXXXXXXXXXXX....",
"....XXXXXXXXXXXXXXXXXXXXXXXXXXXXXXXXXXXXXXXXXXXXXXXXXXXXXXXX....",
"....XXXXXXXXooooooooooooooooooooooooooooooooooooooooXXXXXXXX....",
"....XXXXXXXXooooooooooooooooooooooooooooooooooooooooXXXXXXXX....",
"....XXXXXXXXooooooooooooooooooooooooooooooooooooooooXXXXXXXX....",
"....XXXXXXXXooooooooooooooooooooooooooooooooooooooooXXXXXXXX....",
"....XXXXooooooooooooooooooooooooooooooooooooooooooooooooXXXX....",
"....XXXXooooooooooooooooooooooooooooooooooooooooooooooooXXXX....",
"....XXXXooooooooooooooooooooooooooooooooooooooooooooooooXXXX....",
"....XXXXooooooooooooooooooooooooooooooooooooooooooooooooXXXX....",
"    ....oooooooooooooooooooooooooooooooooooooooooooooooo....    ",
"    ....oooooooooooooooooooooooooooooooooooooooooooooooo....    ",
"    ....oooooooooooooooooooooooooooooooooooooooooooooooo....    ",
"    ....oooooooooooooooooooooooooooooooooooooooooooooooo....    ",
"    ........XXXXoooooooooooooooooooooooooooooooooooo........    ",
"    ........XXXXoooooooooooooooooooooooooooooooooooo........    ",
"    ........XXXXoooooooooooooooooooooooooooooooooooo........    ",
"    ........XXXXoooooooooooooooooooooooooooooooooooo........    ",
"        ........XXXXoooooooooooooooooooooooooooo........        ",
"        ........XXXXoooooooooooooooooooooooooooo........        ",
"        ........XXXXoooooooooooooooooooooooooooo........        ",
"        ........XXXXoooooooooooooooooooooooooooo........        ",
"            ........oooooooooooooooooooooooo........            ",
"            ........oooooooooooooooooooooooo........            ",
"            ........oooooooooooooooooooooooo........            ",
"            ........oooooooooooooooooooooooo........            ",
"                    ........................                    ",
"                    ........................                    ",
"                    ........................                    ",
"                    ........................                    "
};
