/* XPM */
static char *d059d17b164145ad9555e2db04245f88s9isI2VEHvT19Nxm[] = {
/* columns rows colors chars-per-pixel */
"64 64 6 1 ",
"  c None",
". c #020202",
"X c #932220",
"o c #D2302E",
"O c gray79",
"+ c white",
/* pixels */
"                    ........................                    ",
"                    ........................                    ",
"                    ........................                    ",
"                    ........................                    ",
"            ........oooooooooooooooooooooooo........            ",
"            ........oooooooooooooooooooooooo........            ",
"            ........oooooooooooooooooooooooo........            ",
"            ........oooooooooooooooooooooooo........            ",
"        ........ooooooooooooooooooooooooooooXXXX........        ",
"        ........ooooooooooooooooooooooooooooXXXX........        ",
"        ........ooooooooooooooooooooooooooooXXXX........        ",
"        ........ooooooooooooooooooooooooooooXXXX........        ",
"    ........ooooooooooooooooooooooooooooooooooooXXXX........    ",
"    ........ooooooooooooooooooooooooooooooooooooXXXX........    ",
"    ........ooooooooooooooooooooooooooooooooooooXXXX........    ",
"    ........ooooooooooooooooooooooooooooooooooooXXXX........    ",
"    ....oooooooooooooooooooooooooooooooooooooooooooooooo....    ",
"    ....oooooooooooooooooooooooooooooooooooooooooooooooo....    ",
"    ....oooooooooooooooooooooooooooooooooooooooooooooooo....    ",
"    ....oooooooooooooooooooooooooooooooooooooooooooooooo....    ",
"....XXXXooooooooooooooooooooooooooooooooooooooooooooooooXXXX....",
"....XXXXooooooooooooooooooooooooooooooooooooooooooooooooXXXX....",
"....XXXXooooooooooooooooooooooooooooooooooooooooooooooooXXXX....",
"....XXXXooooooooooooooooooooooooooooooooooooooooooooooooXXXX....",
"....XXXXXXXXooooooooooooooooooooooooooooooooooooooooXXXXXXXX....",
"....XXXXXXXXooooooooooooooooooooooooooooooooooooooooXXXXXXXX....",
"....XXXXXXXXooooooooooooooooooooooooooooooooooooooooXXXXXXXX....",
"....XXXXXXXXooooooooooooooooooooooooooooooooooooooooXXXXXXXX....",
"....XXXXXXXXXXXXXXXXXXXXXXXXXXXXXXXXXXXXXXXXXXXXXXXXXXXXXXXX....",
"....XXXXXXXXXXXXXXXXXXXXXXXXXXXXXXXXXXXXXXXXXXXXXXXXXXXXXXXX....",
"....XXXXXXXXXXXXXXXXXXXXXXXXXXXXXXXXXXXXXXXXXXXXXXXXXXXXXXXX....",
"....XXXXXXXXXXXXXXXXXXXXXXXXXXXXXXXXXXXXXXXXXXXXXXXXXXXXXXXX....",
"....OOOOOOOOOOOOOOOOOOOOOOOOOOOOOOOOOOOOOOOOOOOOOOOOOOOOOOOO....",
"....OOOOOOOOOOOOOOOOOOOOOOOOOOOOOOOOOOOOOOOOOOOOOOOOOOOOOOOO....",
"....OOOOOOOOOOOOOOOOOOOOOOOOOOOOOOOOOOOOOOOOOOOOOOOOOOOOOOOO....",
"....OOOOOOOOOOOOOOOOOOOOOOOOOOOOOOOOOOOOOOOOOOOOOOOOOOOOOOOO....",
"....OOOOOOOO++++++++++++++++++++++++++++++++++++++++OOOOOOOO....",
"....OOOOOOOO++++++++++++++++++++++++++++++++++++++++OOOOOOOO....",
"....OOOOOOOO++++++++++++++++++++++++++++++++++++++++OOOOOOOO....",
"....OOOOOOOO++++++++++++++++++++++++++++++++++++++++OOOOOOOO....",
"....OOOO++++++++++++++++++++++++++++++++++++++++++++++++OOOO....",
"....OOOO++++++++++++++++++++++++++++++++++++++++++++++++OOOO....",
"....OOOO++++++++++++++++++++++++++++++++++++++++++++++++OOOO....",
"....OOOO++++++++++++++++++++++++++++++++++++++++++++++++OOOO....",
"    ....++++++++++++++++++++++++++++++++++++++++++++++++....    ",
"    ....++++++++++++++++++++++++++++++++++++++++++++++++....    ",
"    ....++++++++++++++++++++++++++++++++++++++++++++++++....    ",
"    ....++++++++++++++++++++++++++++++++++++++++++++++++....    ",
"    ........++++++++++++++++++++++++++++++++++++++++........    ",
"    ........++++++++++++++++++++++++++++++++++++++++........    ",
"    ........++++++++++++++++++++++++++++++++++++++++........    ",
"    ........++++++++++++++++++++++++++++++++++++++++........    ",
"        ........OOOO++++++++++++++++++++++++++++........        ",
"        ........OOOO++++++++++++++++++++++++++++........        ",
"        ........OOOO++++++++++++++++++++++++++++........        ",
"        ........OOOO++++++++++++++++++++++++++++........        ",
"            ........OOOO++++++++++++++++++++........            ",
"            ........OOOO++++++++++++++++++++........            ",
"            ........OOOO++++++++++++++++++++........            ",
"            ........OOOO++++++++++++++++++++........            ",
"                    ........................                    ",
"                    ........................                    ",
"                    ........................                    ",
"                    ........................                    "
};
