/* XPM */
static char *a6fb1a1975074fa4c9e7439bef9bd499k8SMRp8LI2okfTPk[] = {
/* columns rows colors chars-per-pixel */
"64 64 6 1 ",
"  c None",
". c #020202",
"X c #932220",
"o c #D2302E",
"O c gray79",
"+ c white",
/* pixels */
"                    ........................                    ",
"                    ........................                    ",
"                    ........................                    ",
"                    ........................                    ",
"            ........OOOOOOOOOOOOXXXXXXXXXXXX........            ",
"            ........OOOOOOOOOOOOXXXXXXXXXXXX........            ",
"            ........OOOOOOOOOOOOXXXXXXXXXXXX........            ",
"            ........OOOOOOOOOOOOXXXXXXXXXXXX........            ",
"        ........++++++++OOOOOOOOXXXXXXXXoooooooo........        ",
"        ........++++++++OOOOOOOOXXXXXXXXoooooooo........        ",
"        ........++++++++OOOOOOOOXXXXXXXXoooooooo........        ",
"        ........++++++++OOOOOOOOXXXXXXXXoooooooo........        ",
"    ........++++++++++++++++OOOOXXXXoooooooooooooooo........    ",
"    ........++++++++++++++++OOOOXXXXoooooooooooooooo........    ",
"    ........++++++++++++++++OOOOXXXXoooooooooooooooo........    ",
"    ........++++++++++++++++OOOOXXXXoooooooooooooooo........    ",
"    ....OOOO++++++++++++++++OOOOXXXXoooooooooooooooooooo....    ",
"    ....OOOO++++++++++++++++OOOOXXXXoooooooooooooooooooo....    ",
"    ....OOOO++++++++++++++++OOOOXXXXoooooooooooooooooooo....    ",
"    ....OOOO++++++++++++++++OOOOXXXXoooooooooooooooooooo....    ",
"....OOOO++++++++++++++++++++OOOOXXXXoooooooooooooooooooooooo....",
"....OOOO++++++++++++++++++++OOOOXXXXoooooooooooooooooooooooo....",
"....OOOO++++++++++++++++++++OOOOXXXXoooooooooooooooooooooooo....",
"....OOOO++++++++++++++++++++OOOOXXXXoooooooooooooooooooooooo....",
"....++++++++++++++++++++++++OOOOXXXXoooooooooooooooooooooooo....",
"....++++++++++++++++++++++++OOOOXXXXoooooooooooooooooooooooo....",
"....++++++++++++++++++++++++OOOOXXXXoooooooooooooooooooooooo....",
"....++++++++++++++++++++++++OOOOXXXXoooooooooooooooooooooooo....",
"....++++++++++++++++++++++++OOOOXXXXoooooooooooooooooooooooo....",
"....++++++++++++++++++++++++OOOOXXXXoooooooooooooooooooooooo....",
"....++++++++++++++++++++++++OOOOXXXXoooooooooooooooooooooooo....",
"....++++++++++++++++++++++++OOOOXXXXoooooooooooooooooooooooo....",
"....++++++++++++++++++++++++OOOOXXXXoooooooooooooooooooooooo....",
"....++++++++++++++++++++++++OOOOXXXXoooooooooooooooooooooooo....",
"....++++++++++++++++++++++++OOOOXXXXoooooooooooooooooooooooo....",
"....++++++++++++++++++++++++OOOOXXXXoooooooooooooooooooooooo....",
"....++++++++++++++++++++++++OOOOXXXXoooooooooooooooooooooooo....",
"....++++++++++++++++++++++++OOOOXXXXoooooooooooooooooooooooo....",
"....++++++++++++++++++++++++OOOOXXXXoooooooooooooooooooooooo....",
"....++++++++++++++++++++++++OOOOXXXXoooooooooooooooooooooooo....",
"....++++++++++++++++++++++++OOOOXXXXoooooooooooooooooooooooo....",
"....++++++++++++++++++++++++OOOOXXXXoooooooooooooooooooooooo....",
"....++++++++++++++++++++++++OOOOXXXXoooooooooooooooooooooooo....",
"....++++++++++++++++++++++++OOOOXXXXoooooooooooooooooooooooo....",
"    ....++++++++++++++++++++OOOOXXXXooooooooooooooooXXXX....    ",
"    ....++++++++++++++++++++OOOOXXXXooooooooooooooooXXXX....    ",
"    ....++++++++++++++++++++OOOOXXXXooooooooooooooooXXXX....    ",
"    ....++++++++++++++++++++OOOOXXXXooooooooooooooooXXXX....    ",
"    ........++++++++++++++++OOOOXXXXooooooooooooXXXX........    ",
"    ........++++++++++++++++OOOOXXXXooooooooooooXXXX........    ",
"    ........++++++++++++++++OOOOXXXXooooooooooooXXXX........    ",
"    ........++++++++++++++++OOOOXXXXooooooooooooXXXX........    ",
"        ........++++++++OOOOOOOOXXXXXXXXoooooooo........        ",
"        ........++++++++OOOOOOOOXXXXXXXXoooooooo........        ",
"        ........++++++++OOOOOOOOXXXXXXXXoooooooo........        ",
"        ........++++++++OOOOOOOOXXXXXXXXoooooooo........        ",
"            ........OOOOOOOOOOOOXXXXXXXXXXXX........            ",
"            ........OOOOOOOOOOOOXXXXXXXXXXXX........            ",
"            ........OOOOOOOOOOOOXXXXXXXXXXXX........            ",
"            ........OOOOOOOOOOOOXXXXXXXXXXXX........            ",
"                    ........................                    ",
"                    ........................                    ",
"                    ........................                    ",
"                    ........................                    "
};
