/* XPM */
static char *_47c9872e082482387194797d11b2088VdWBlRNBDQRNbLCf[] = {
/* columns rows colors chars-per-pixel */
"64 64 6 1 ",
"  c None",
". c #020202",
"X c #932220",
"o c #D2302E",
"O c gray79",
"+ c white",
/* pixels */
"                    ........................                    ",
"                    ........................                    ",
"                    ........................                    ",
"                    ........................                    ",
"            ........XXXXXXXXXXXXOOOOOOOOOOOO........            ",
"            ........XXXXXXXXXXXXOOOOOOOOOOOO........            ",
"            ........XXXXXXXXXXXXOOOOOOOOOOOO........            ",
"            ........XXXXXXXXXXXXOOOOOOOOOOOO........            ",
"        ........ooooooooXXXXXXXXOOOOOOOO++++++++........        ",
"        ........ooooooooXXXXXXXXOOOOOOOO++++++++........        ",
"        ........ooooooooXXXXXXXXOOOOOOOO++++++++........        ",
"        ........ooooooooXXXXXXXXOOOOOOOO++++++++........        ",
"    ........XXXXooooooooooooXXXXOOOO++++++++++++++++........    ",
"    ........XXXXooooooooooooXXXXOOOO++++++++++++++++........    ",
"    ........XXXXooooooooooooXXXXOOOO++++++++++++++++........    ",
"    ........XXXXooooooooooooXXXXOOOO++++++++++++++++........    ",
"    ....XXXXooooooooooooooooXXXXOOOO++++++++++++++++++++....    ",
"    ....XXXXooooooooooooooooXXXXOOOO++++++++++++++++++++....    ",
"    ....XXXXooooooooooooooooXXXXOOOO++++++++++++++++++++....    ",
"    ....XXXXooooooooooooooooXXXXOOOO++++++++++++++++++++....    ",
"....ooooooooooooooooooooooooXXXXOOOO++++++++++++++++++++++++....",
"....ooooooooooooooooooooooooXXXXOOOO++++++++++++++++++++++++....",
"....ooooooooooooooooooooooooXXXXOOOO++++++++++++++++++++++++....",
"....ooooooooooooooooooooooooXXXXOOOO++++++++++++++++++++++++....",
"....ooooooooooooooooooooooooXXXXOOOO++++++++++++++++++++++++....",
"....ooooooooooooooooooooooooXXXXOOOO++++++++++++++++++++++++....",
"....ooooooooooooooooooooooooXXXXOOOO++++++++++++++++++++++++....",
"....ooooooooooooooooooooooooXXXXOOOO++++++++++++++++++++++++....",
"....ooooooooooooooooooooooooXXXXOOOO++++++++++++++++++++++++....",
"....ooooooooooooooooooooooooXXXXOOOO++++++++++++++++++++++++....",
"....ooooooooooooooooooooooooXXXXOOOO++++++++++++++++++++++++....",
"....ooooooooooooooooooooooooXXXXOOOO++++++++++++++++++++++++....",
"....ooooooooooooooooooooooooXXXXOOOO++++++++++++++++++++++++....",
"....ooooooooooooooooooooooooXXXXOOOO++++++++++++++++++++++++....",
"....ooooooooooooooooooooooooXXXXOOOO++++++++++++++++++++++++....",
"....ooooooooooooooooooooooooXXXXOOOO++++++++++++++++++++++++....",
"....ooooooooooooooooooooooooXXXXOOOO++++++++++++++++++++++++....",
"....ooooooooooooooooooooooooXXXXOOOO++++++++++++++++++++++++....",
"....ooooooooooooooooooooooooXXXXOOOO++++++++++++++++++++++++....",
"....ooooooooooooooooooooooooXXXXOOOO++++++++++++++++++++++++....",
"....ooooooooooooooooooooooooXXXXOOOO++++++++++++++++++++OOOO....",
"....ooooooooooooooooooooooooXXXXOOOO++++++++++++++++++++OOOO....",
"....ooooooooooooooooooooooooXXXXOOOO++++++++++++++++++++OOOO....",
"....ooooooooooooooooooooooooXXXXOOOO++++++++++++++++++++OOOO....",
"    ....ooooooooooooooooooooXXXXOOOO++++++++++++++++OOOO....    ",
"    ....ooooooooooooooooooooXXXXOOOO++++++++++++++++OOOO....    ",
"    ....ooooooooooooooooooooXXXXOOOO++++++++++++++++OOOO....    ",
"    ....ooooooooooooooooooooXXXXOOOO++++++++++++++++OOOO....    ",
"    ........ooooooooooooooooXXXXOOOO++++++++++++++++........    ",
"    ........ooooooooooooooooXXXXOOOO++++++++++++++++........    ",
"    ........ooooooooooooooooXXXXOOOO++++++++++++++++........    ",
"    ........ooooooooooooooooXXXXOOOO++++++++++++++++........    ",
"        ........ooooooooXXXXXXXXOOOOOOOO++++++++........        ",
"        ........ooooooooXXXXXXXXOOOOOOOO++++++++........        ",
"        ........ooooooooXXXXXXXXOOOOOOOO++++++++........        ",
"        ........ooooooooXXXXXXXXOOOOOOOO++++++++........        ",
"            ........XXXXXXXXXXXXOOOOOOOOOOOO........            ",
"            ........XXXXXXXXXXXXOOOOOOOOOOOO........            ",
"            ........XXXXXXXXXXXXOOOOOOOOOOOO........            ",
"            ........XXXXXXXXXXXXOOOOOOOOOOOO........            ",
"                    ........................                    ",
"                    ........................                    ",
"                    ........................                    ",
"                    ........................                    "
};
