/* XPM */
static char *result[] = {
/* columns rows colors chars-per-pixel */
"64 64 12 1 ",
"  c black",
". c #492F12",
"X c #613F18",
"o c #122E49",
"O c #183E61",
"+ c #9A7629",
"@ c #348F39",
"# c #50BF58",
"$ c #C79E4D",
"% c #FDCA91",
"& c #FDD8AF",
"* c None",
/* pixels */
"********************                                ************",
"********************                                ************",
"********************                                ************",
"********************                                ************",
"****************    ++++$$$$$$$$$$$$$$$$++++$$$$$$$$    ********",
"****************    ++++$$$$$$$$$$$$$$$$++++$$$$$$$$    ********",
"****************    ++++$$$$$$$$$$$$$$$$++++$$$$$$$$    ********",
"****************    ++++$$$$$$$$$$$$$$$$++++$$$$$$$$    ********",
"****************    $$$$$$$$$$$$$$$$$$$$++++++++$$$$    ********",
"****************    $$$$$$$$$$$$$$$$$$$$++++++++$$$$    ********",
"****************    $$$$$$$$$$$$$$$$$$$$++++++++$$$$    ********",
"****************    $$$$$$$$$$$$$$$$$$$$++++++++$$$$    ********",
"****************    $$$$$$$$++++%%%%%%%%%%%%%%%%    ************",
"****************    $$$$$$$$++++%%%%%%%%%%%%%%%%    ************",
"****************    $$$$$$$$++++%%%%%%%%%%%%%%%%    ************",
"****************    $$$$$$$$++++%%%%%%%%%%%%%%%%    ************",
"****************    $$$$++++%%%%&&&&&&&&&&&&&&&&    ************",
"****************    $$$$++++%%%%&&&&&&&&&&&&&&&&    ************",
"****************    $$$$++++%%%%&&&&&&&&&&&&&&&&    ************",
"****************    $$$$++++%%%%&&&&&&&&&&&&&&&&    ************",
"************        @@@@@@@@@@@@%%%%%%%%%%%%    ++++    ********",
"************        @@@@@@@@@@@@%%%%%%%%%%%%    ++++    ********",
"************        @@@@@@@@@@@@%%%%%%%%%%%%    ++++    ********",
"************        @@@@@@@@@@@@%%%%%%%%%%%%    ++++    ********",
"********    @@@@@@@@########oooo@@@@@@@@@@@@        ************",
"********    @@@@@@@@########oooo@@@@@@@@@@@@        ************",
"********    @@@@@@@@########oooo@@@@@@@@@@@@        ************",
"********    @@@@@@@@########oooo@@@@@@@@@@@@        ************",
"********    ############ooooOOOOOOOOooooooooOOOO    ************",
"********    ############ooooOOOOOOOOooooooooOOOO    ************",
"********    ############ooooOOOOOOOOooooooooOOOO    ************",
"********    ############ooooOOOOOOOOooooooooOOOO    ************",
"********    ########OOOOOOOO%%%%&&&&OOOOOOOO%%%%%%%%    ********",
"********    ########OOOOOOOO%%%%&&&&OOOOOOOO%%%%%%%%    ********",
"********    ########OOOOOOOO%%%%&&&&OOOOOOOO%%%%%%%%    ********",
"********    ########OOOOOOOO%%%%&&&&OOOOOOOO%%%%%%%%    ********",
"********    ########ooooOOOO%%%%&&&&OOOOOOOO%%%%%%%%    ********",
"********    ########ooooOOOO%%%%&&&&OOOOOOOO%%%%%%%%    ********",
"********    ########ooooOOOO%%%%&&&&OOOOOOOO%%%%%%%%    ********",
"********    ########ooooOOOO%%%%&&&&OOOOOOOO%%%%%%%%    ********",
"****    @@@@########ooooOOOOOOOOOOOOOOOOOOOOOOOO    ************",
"****    @@@@########ooooOOOOOOOOOOOOOOOOOOOOOOOO    ************",
"****    @@@@########ooooOOOOOOOOOOOOOOOOOOOOOOOO    ************",
"****    @@@@########ooooOOOOOOOOOOOOOOOOOOOOOOOO    ************",
"****    @@@@@@@@@@@@............................    ************",
"****    @@@@@@@@@@@@............................    ************",
"****    @@@@@@@@@@@@............................    ************",
"****    @@@@@@@@@@@@............................    ************",
"********            ....XXXXXXXX        XXXXXXXX    ************",
"********            ....XXXXXXXX        XXXXXXXX    ************",
"********            ....XXXXXXXX        XXXXXXXX    ************",
"********            ....XXXXXXXX        XXXXXXXX    ************",
"****************    XXXXXXXX    ****    XXXXXXXX    ************",
"****************    XXXXXXXX    ****    XXXXXXXX    ************",
"****************    XXXXXXXX    ****    XXXXXXXX    ************",
"****************    XXXXXXXX    ****    XXXXXXXX    ************",
"****************    XXXX        ****    XXXX        ************",
"****************    XXXX        ****    XXXX        ************",
"****************    XXXX        ****    XXXX        ************",
"****************    XXXX        ****    XXXX        ************",
"********************        ************        ****************",
"********************        ************        ****************",
"********************        ************        ****************",
"********************        ************        ****************"
};
