/* XPM */
static char *result[] = {
/* columns rows colors chars-per-pixel */
"64 64 10 1 ",
"  c black",
". c #3E1B24",
"X c gray14",
"o c #B63E3E",
"O c #B86A13",
"+ c #834422",
"@ c #D89A79",
"# c #D9C34D",
"$ c white",
"% c None",
/* pixels */
"%%%%%%%%%%%%%%%%%%%%%%%%%%%%%%%%%%%%%%%%%%%%%%%%%%%%%%%%%%%%%%%%",
"%%%%%%%%%%%%%%%%%%%%%%%%%%%%%%%%%%%%%%%%%%%%%%%%%%%%%%%%%%%%%%%%",
"%%%%%%%%%%%%%%%%%%%%%%%%%%%%%%%%%%%%%%%%%%%%%%%%%%%%%%%%%%%%%%%%",
"%%%%%%%%%%%%%%%%%%%%%%%%%%%%%%%%%%%%%%%%%%%%%%%%%%%%%%%%%%%%%%%%",
"%%%%%%%%%%%%%%%%%%%%%%%%%%%%%%%%............%%%%%%%%%%%%%%%%%%%%",
"%%%%%%%%%%%%%%%%%%%%%%%%%%%%%%%%............%%%%%%%%%%%%%%%%%%%%",
"%%%%%%%%%%%%%%%%%%%%%%%%%%%%%%%%............%%%%%%%%%%%%%%%%%%%%",
"%%%%%%%%%%%%%%%%%%%%%%%%%%%%%%%%............%%%%%%%%%%%%%%%%%%%%",
"%%%%%%%%%%%%%%%%%%%%%%%%............    %%%%++++%%%%%%%%%%%%%%%%",
"%%%%%%%%%%%%%%%%%%%%%%%%............    %%%%++++%%%%%%%%%%%%%%%%",
"%%%%%%%%%%%%%%%%%%%%%%%%............    %%%%++++%%%%%%%%%%%%%%%%",
"%%%%%%%%%%%%%%%%%%%%%%%%............    %%%%++++%%%%%%%%%%%%%%%%",
"%%%%%%%%%%%%%%%%%%%%oooo........oooo....%%%%%%%%%%%%%%%%%%%%%%%%",
"%%%%%%%%%%%%%%%%%%%%oooo........oooo....%%%%%%%%%%%%%%%%%%%%%%%%",
"%%%%%%%%%%%%%%%%%%%%oooo........oooo....%%%%%%%%%%%%%%%%%%%%%%%%",
"%%%%%%%%%%%%%%%%%%%%oooo........oooo....%%%%%%%%%%%%%%%%%%%%%%%%",
"%%%%%%%%%%%%%%%%++++oooo........oooo++++%%%%%%%%%%%%%%%%%%%%%%%%",
"%%%%%%%%%%%%%%%%++++oooo........oooo++++%%%%%%%%%%%%%%%%%%%%%%%%",
"%%%%%%%%%%%%%%%%++++oooo........oooo++++%%%%%%%%%%%%%%%%%%%%%%%%",
"%%%%%%%%%%%%%%%%++++oooo........oooo++++%%%%%%%%%%%%%%%%%%%%%%%%",
"%%%%%%%%++++........OOOOOOOOOOOOOOOO....    ....%%%%%%%%%%%%%%%%",
"%%%%%%%%++++........OOOOOOOOOOOOOOOO....    ....%%%%%%%%%%%%%%%%",
"%%%%%%%%++++........OOOOOOOOOOOOOOOO....    ....%%%%%%%%%%%%%%%%",
"%%%%%%%%++++........OOOOOOOOOOOOOOOO....    ....%%%%%%%%%%%%%%%%",
"%%%%++++................................    ....++++%%%%%%%%%%%%",
"%%%%++++................................    ....++++%%%%%%%%%%%%",
"%%%%++++................................    ....++++%%%%%%%%%%%%",
"%%%%++++................................    ....++++%%%%%%%%%%%%",
"%%%%OOOO........########OOOOOOOOOOOOOOOO........OOOO%%%%%%%%%%%%",
"%%%%OOOO........########OOOOOOOOOOOOOOOO........OOOO%%%%%%%%%%%%",
"%%%%OOOO........########OOOOOOOOOOOOOOOO........OOOO%%%%%%%%%%%%",
"%%%%OOOO........########OOOOOOOOOOOOOOOO........OOOO%%%%%%%%%%%%",
"%%%%%%%%OOOOOOOO@@@@....@@@@@@@@....@@@@OOOOOOOO%%%%%%%%%%%%%%%%",
"%%%%%%%%OOOOOOOO@@@@....@@@@@@@@....@@@@OOOOOOOO%%%%%%%%%%%%%%%%",
"%%%%%%%%OOOOOOOO@@@@....@@@@@@@@....@@@@OOOOOOOO%%%%%%%%%%%%%%%%",
"%%%%%%%%OOOOOOOO@@@@....@@@@@@@@....@@@@OOOOOOOO%%%%%%%%%%%%%%%%",
"%%%%%%%%++++++++@@@@++++@@@@@@@@++++@@@@++++++++%%%%%%%%%%%%%%%%",
"%%%%%%%%++++++++@@@@++++@@@@@@@@++++@@@@++++++++%%%%%%%%%%%%%%%%",
"%%%%%%%%++++++++@@@@++++@@@@@@@@++++@@@@++++++++%%%%%%%%%%%%%%%%",
"%%%%%%%%++++++++@@@@++++@@@@@@@@++++@@@@++++++++%%%%%%%%%%%%%%%%",
"%%%%%%%%%%%%++++....@@@@@@@@@@@@@@@@    ++++%%%%%%%%%%%%%%%%%%%%",
"%%%%%%%%%%%%++++....@@@@@@@@@@@@@@@@    ++++%%%%%%%%%%%%%%%%%%%%",
"%%%%%%%%%%%%++++....@@@@@@@@@@@@@@@@    ++++%%%%%%%%%%%%%%%%%%%%",
"%%%%%%%%%%%%++++....@@@@@@@@@@@@@@@@    ++++%%%%%%%%%%%%%%%%%%%%",
"%%%%%%%%%%%%%%%%%%%%    OOOOXXXXXXXXOOOO....%%%%%%%%%%%%%%%%%%%%",
"%%%%%%%%%%%%%%%%%%%%    OOOOXXXXXXXXOOOO....%%%%%%%%%%%%%%%%%%%%",
"%%%%%%%%%%%%%%%%%%%%    OOOOXXXXXXXXOOOO....%%%%%%%%%%%%%%%%%%%%",
"%%%%%%%%%%%%%%%%%%%%    OOOOXXXXXXXXOOOO....%%%%%%%%%%%%%%%%%%%%",
"%%%%%%%%%%%%%%%%%%%%    OOOOooooooooOOOO....%%%%%%%%%%%%%%%%%%%%",
"%%%%%%%%%%%%%%%%%%%%    OOOOooooooooOOOO....%%%%%%%%%%%%%%%%%%%%",
"%%%%%%%%%%%%%%%%%%%%    OOOOooooooooOOOO....%%%%%%%%%%%%%%%%%%%%",
"%%%%%%%%%%%%%%%%%%%%    OOOOooooooooOOOO....%%%%%%%%%%%%%%%%%%%%",
"%%%%%%%%%%%%%%%%....OOOO................OOOO....%%%%%%%%%%%%%%%%",
"%%%%%%%%%%%%%%%%....OOOO................OOOO....%%%%%%%%%%%%%%%%",
"%%%%%%%%%%%%%%%%....OOOO................OOOO....%%%%%%%%%%%%%%%%",
"%%%%%%%%%%%%%%%%....OOOO................OOOO....%%%%%%%%%%%%%%%%",
"%%%%%%%%%%%%%%%%....OOOOooooooooOOOOXXXXOOOO....%%%%%%%%%%%%%%%%",
"%%%%%%%%%%%%%%%%....OOOOooooooooOOOOXXXXOOOO....%%%%%%%%%%%%%%%%",
"%%%%%%%%%%%%%%%%....OOOOooooooooOOOOXXXXOOOO....%%%%%%%%%%%%%%%%",
"%%%%%%%%%%%%%%%%....OOOOooooooooOOOOXXXXOOOO....%%%%%%%%%%%%%%%%",
"%%%%%%%%%%%%%%%%%%%%OOOO$$$$%%%%%%%%....OOOO%%%%%%%%%%%%%%%%%%%%",
"%%%%%%%%%%%%%%%%%%%%OOOO$$$$%%%%%%%%....OOOO%%%%%%%%%%%%%%%%%%%%",
"%%%%%%%%%%%%%%%%%%%%OOOO$$$$%%%%%%%%....OOOO%%%%%%%%%%%%%%%%%%%%",
"%%%%%%%%%%%%%%%%%%%%OOOO$$$$%%%%%%%%....OOOO%%%%%%%%%%%%%%%%%%%%"
};
