/* XPM */
static char *result[] = {
/* columns rows colors chars-per-pixel */
"64 64 14 1 ",
"  c black",
". c gray22",
"X c #5E2222",
"o c #525B66",
"O c #BB3E3E",
"+ c #597DCE",
"@ c #768390",
"# c #96A3AC",
"$ c #C89883",
"% c #D2AA99",
"& c #C3E2B5",
"* c #CCE6C0",
"= c #DEEED6",
"- c None",
/* pixels */
"----------------------------------------------------------------",
"----------------------------------------------------------------",
"----------------------------------------------------------------",
"----------------------------------------------------------------",
"--------------------====....========    @@@@--------------------",
"--------------------====....========    @@@@--------------------",
"--------------------====....========    @@@@--------------------",
"--------------------====....========    @@@@--------------------",
"------------========....####========####    ========------------",
"------------========....####========####    ========------------",
"------------========....####========####    ========------------",
"------------========....####========####    ========------------",
"----------------========OOOOOOOOOOOOOOOO========----------------",
"----------------========OOOOOOOOOOOOOOOO========----------------",
"----------------========OOOOOOOOOOOOOOOO========----------------",
"----------------========OOOOOOOOOOOOOOOO========----------------",
"------------++++XXXXOOOOOOOOOOOOOOOOOOOOOOOOOOOOOOOO------------",
"------------++++XXXXOOOOOOOOOOOOOOOOOOOOOOOOOOOOOOOO------------",
"------------++++XXXXOOOOOOOOOOOOOOOOOOOOOOOOOOOOOOOO------------",
"------------++++XXXXOOOOOOOOOOOOOOOOOOOOOOOOOOOOOOOO------------",
"------------XXXX++++XXXX%%%%XXXXOOOOOOOOXXXXOOOOOOOO------------",
"------------XXXX++++XXXX%%%%XXXXOOOOOOOOXXXXOOOOOOOO------------",
"------------XXXX++++XXXX%%%%XXXXOOOOOOOOXXXXOOOOOOOO------------",
"------------XXXX++++XXXX%%%%XXXXOOOOOOOOXXXXOOOOOOOO------------",
"------------++++XXXX%%%%%%%%XXXXOOOOOOOOXXXXOOOOOOOO------------",
"------------++++XXXX%%%%%%%%XXXXOOOOOOOOXXXXOOOOOOOO------------",
"------------++++XXXX%%%%%%%%XXXXOOOOOOOOXXXXOOOOOOOO------------",
"------------++++XXXX%%%%%%%%XXXXOOOOOOOOXXXXOOOOOOOO------------",
"------------XXXXXXXX%%%%XXXX%%%%XXXXXXXXOOOOOOOOOOOO------------",
"------------XXXXXXXX%%%%XXXX%%%%XXXXXXXXOOOOOOOOOOOO------------",
"------------XXXXXXXX%%%%XXXX%%%%XXXXXXXXOOOOOOOOOOOO------------",
"------------XXXXXXXX%%%%XXXX%%%%XXXXXXXXOOOOOOOOOOOO------------",
"------------XXXXXXXX%%%%OOOO%%%%XXXXXXXXXXXXOOOOXXXX------------",
"------------XXXXXXXX%%%%OOOO%%%%XXXXXXXXXXXXOOOOXXXX------------",
"------------XXXXXXXX%%%%OOOO%%%%XXXXXXXXXXXXOOOOXXXX------------",
"------------XXXXXXXX%%%%OOOO%%%%XXXXXXXXXXXXOOOOXXXX------------",
"------------------------$$$$%%%%%%%%%%%%XXXXXXXX----------------",
"------------------------$$$$%%%%%%%%%%%%XXXXXXXX----------------",
"------------------------$$$$%%%%%%%%%%%%XXXXXXXX----------------",
"------------------------$$$$%%%%%%%%%%%%XXXXXXXX----------------",
"--------------------&&&&====        ========--------------------",
"--------------------&&&&====        ========--------------------",
"--------------------&&&&====        ========--------------------",
"--------------------&&&&====        ========--------------------",
"--------------------$$$$****%%%%%%%%====$$$$--------------------",
"--------------------$$$$****%%%%%%%%====$$$$--------------------",
"--------------------$$$$****%%%%%%%%====$$$$--------------------",
"--------------------$$$$****%%%%%%%%====$$$$--------------------",
"----------------====        oooo@@@@        @@@@----------------",
"----------------====        oooo@@@@        @@@@----------------",
"----------------====        oooo@@@@        @@@@----------------",
"----------------====        oooo@@@@        @@@@----------------",
"----------------####====@@@@****@@@@@@@@====@@@@----------------",
"----------------####====@@@@****@@@@@@@@====@@@@----------------",
"----------------####====@@@@****@@@@@@@@====@@@@----------------",
"----------------####====@@@@****@@@@@@@@====@@@@----------------",
"--------------------====%%%%oooooooo%%%%====--------------------",
"--------------------====%%%%oooooooo%%%%====--------------------",
"--------------------====%%%%oooooooo%%%%====--------------------",
"--------------------====%%%%oooooooo%%%%====--------------------",
"------------------------====--------====------------------------",
"------------------------====--------====------------------------",
"------------------------====--------====------------------------",
"------------------------====--------====------------------------"
};
