/* XPM */
static char *result[] = {
/* columns rows colors chars-per-pixel */
"64 64 21 1 ",
"  c black",
". c gray22",
"X c #233F76",
"o c #484848",
"O c #585858",
"+ c #525B66",
"@ c #70787B",
"# c #BB3E3E",
"$ c #3963BE",
"% c #597DCE",
"& c #778083",
"* c #768390",
"= c #7D98D8",
"- c #96A3AC",
"; c #9FAAB3",
": c #C89883",
"> c #D2AA99",
", c #C3E2B5",
"< c #CCE6C0",
"1 c #DEEED6",
"2 c None",
/* pixels */
"2222222222222222222222222222222222222222222222222222222222222222",
"2222222222222222222222222222222222222222222222222222222222222222",
"2222222222222222222222222222222222222222222222222222222222222222",
"2222222222222222222222222222222222222222222222222222222222222222",
"222222222222222222221111....11111111    ****22222222222222222222",
"222222222222222222221111....11111111    ****22222222222222222222",
"222222222222222222221111....11111111    ****22222222222222222222",
"222222222222222222221111....11111111    ****22222222222222222222",
"22222222222211111111....----11111111----    11111111222222222222",
"22222222222211111111....----11111111----    11111111222222222222",
"22222222222211111111....----11111111----    11111111222222222222",
"22222222222211111111....----11111111----    11111111222222222222",
"222222222222222211111111====%%%%%%%%%%%%111111112222222222222222",
"222222222222222211111111====%%%%%%%%%%%%111111112222222222222222",
"222222222222222211111111====%%%%%%%%%%%%111111112222222222222222",
"222222222222222211111111====%%%%%%%%%%%%111111112222222222222222",
"222222222222====%%%%%%%%%%%%%%%%%%%%%%%%%%%%XXXX####222222222222",
"222222222222====%%%%%%%%%%%%%%%%%%%%%%%%%%%%XXXX####222222222222",
"222222222222====%%%%%%%%%%%%%%%%%%%%%%%%%%%%XXXX####222222222222",
"222222222222====%%%%%%%%%%%%%%%%%%%%%%%%%%%%XXXX####222222222222",
"222222222222====%%%%$$$$%%%%%%%%XXXX>>>>XXXX####XXXX222222222222",
"222222222222====%%%%$$$$%%%%%%%%XXXX>>>>XXXX####XXXX222222222222",
"222222222222====%%%%$$$$%%%%%%%%XXXX>>>>XXXX####XXXX222222222222",
"222222222222====%%%%$$$$%%%%%%%%XXXX>>>>XXXX####XXXX222222222222",
"222222222222====%%%%$$$$%%%%%%%%XXXX>>>>>>>>XXXX####222222222222",
"222222222222====%%%%$$$$%%%%%%%%XXXX>>>>>>>>XXXX####222222222222",
"222222222222====%%%%$$$$%%%%%%%%XXXX>>>>>>>>XXXX####222222222222",
"222222222222====%%%%$$$$%%%%%%%%XXXX>>>>>>>>XXXX####222222222222",
"222222222222====%%%%%%%%$$$$XXXX>>>>XXXX>>>>XXXXXXXX222222222222",
"222222222222====%%%%%%%%$$$$XXXX>>>>XXXX>>>>XXXXXXXX222222222222",
"222222222222====%%%%%%%%$$$$XXXX>>>>XXXX>>>>XXXXXXXX222222222222",
"222222222222====%%%%%%%%$$$$XXXX>>>>XXXX>>>>XXXXXXXX222222222222",
"222222222222$$$$%%%%$$$$XXXXXXXX>>>>%%%%>>>>XXXXXXXX222222222222",
"222222222222$$$$%%%%$$$$XXXXXXXX>>>>%%%%>>>>XXXXXXXX222222222222",
"222222222222$$$$%%%%$$$$XXXXXXXX>>>>%%%%>>>>XXXXXXXX222222222222",
"222222222222$$$$%%%%$$$$XXXXXXXX>>>>%%%%>>>>XXXXXXXX222222222222",
"2222222222222222$$$$2222::::>>>>>>>>>>>>222222222222222222222222",
"2222222222222222$$$$2222::::>>>>>>>>>>>>222222222222222222222222",
"2222222222222222$$$$2222::::>>>>>>>>>>>>222222222222222222222222",
"2222222222222222$$$$2222::::>>>>>>>>>>>>222222222222222222222222",
"22222222222222222222,,,,1111        1111111122222222222222222222",
"22222222222222222222,,,,1111        1111111122222222222222222222",
"22222222222222222222,,,,1111        1111111122222222222222222222",
"22222222222222222222,,,,1111        1111111122222222222222222222",
"2222222222222222::::;;;;<<<<>>>>>>>>1111****>>>>2222222222222222",
"2222222222222222::::;;;;<<<<>>>>>>>>1111****>>>>2222222222222222",
"2222222222222222::::;;;;<<<<>>>>>>>>1111****>>>>2222222222222222",
"2222222222222222::::;;;;<<<<>>>>>>>>1111****>>>>2222222222222222",
"222222222222    1111OOOO    ++++****    oooo****2222222222222222",
"222222222222    1111OOOO    ++++****    oooo****2222222222222222",
"222222222222    1111OOOO    ++++****    oooo****2222222222222222",
"222222222222    1111OOOO    ++++****    oooo****2222222222222222",
"2222222211111111----1111****************1111********111122222222",
"2222222211111111----1111****************1111********111122222222",
"2222222211111111----1111****************1111********111122222222",
"2222222211111111----1111****************1111********111122222222",
"222222221111----@@@@1111>>>>++++++++>>>>11112222********22222222",
"222222221111----@@@@1111>>>>++++++++>>>>11112222********22222222",
"222222221111----@@@@1111>>>>++++++++>>>>11112222********22222222",
"222222221111----@@@@1111>>>>++++++++>>>>11112222********22222222",
"222222222222----&&&&2222111122222222111122222222****222222222222",
"222222222222----&&&&2222111122222222111122222222****222222222222",
"222222222222----&&&&2222111122222222111122222222****222222222222",
"222222222222----&&&&2222111122222222111122222222****222222222222"
};
