/* XPM */
static char *result[] = {
/* columns rows colors chars-per-pixel */
"64 64 20 1 ",
"  c black",
". c gray22",
"X c #233F76",
"o c #484848",
"O c #585858",
"+ c #525B66",
"@ c #BB3E3E",
"# c #3963BE",
"$ c #597DCE",
"% c #778083",
"& c #768390",
"* c #7D98D8",
"= c #96A3AC",
"- c #9FAAB3",
"; c #C89883",
": c #D2AA99",
"> c #C3E2B5",
", c #CCE6C0",
"< c #DEEED6",
"1 c None",
/* pixels */
"1111111111111111111111111111111111111111111111111111111111111111",
"1111111111111111111111111111111111111111111111111111111111111111",
"1111111111111111111111111111111111111111111111111111111111111111",
"1111111111111111111111111111111111111111111111111111111111111111",
"1111111111111111111111111111111111111111111111111111111111111111",
"1111111111111111111111111111111111111111111111111111111111111111",
"1111111111111111111111111111111111111111111111111111111111111111",
"1111111111111111111111111111111111111111111111111111111111111111",
"111111111111111111111111<<<<....<<<<<<<<    &&&&1111111111111111",
"111111111111111111111111<<<<....<<<<<<<<    &&&&1111111111111111",
"111111111111111111111111<<<<....<<<<<<<<    &&&&1111111111111111",
"111111111111111111111111<<<<....<<<<<<<<    &&&&1111111111111111",
"1111111111111111<<<<<<<<....====<<<<<<<<====    <<<<<<<<11111111",
"1111111111111111<<<<<<<<....====<<<<<<<<====    <<<<<<<<11111111",
"1111111111111111<<<<<<<<....====<<<<<<<<====    <<<<<<<<11111111",
"1111111111111111<<<<<<<<....====<<<<<<<<====    <<<<<<<<11111111",
"11111111111111111111<<<<<<<<****$$$$$$$$$$$$<<<<<<<<111111111111",
"11111111111111111111<<<<<<<<****$$$$$$$$$$$$<<<<<<<<111111111111",
"11111111111111111111<<<<<<<<****$$$$$$$$$$$$<<<<<<<<111111111111",
"11111111111111111111<<<<<<<<****$$$$$$$$$$$$<<<<<<<<111111111111",
"1111111111111111****$$$$$$$$$$$$$$$$$$$$$$$$$$$$XXXX@@@@11111111",
"1111111111111111****$$$$$$$$$$$$$$$$$$$$$$$$$$$$XXXX@@@@11111111",
"1111111111111111****$$$$$$$$$$$$$$$$$$$$$$$$$$$$XXXX@@@@11111111",
"1111111111111111****$$$$$$$$$$$$$$$$$$$$$$$$$$$$XXXX@@@@11111111",
"1111111111111111****$$$$####$$$$$$$$XXXX::::XXXX@@@@XXXX11111111",
"1111111111111111****$$$$####$$$$$$$$XXXX::::XXXX@@@@XXXX11111111",
"1111111111111111****$$$$####$$$$$$$$XXXX::::XXXX@@@@XXXX11111111",
"1111111111111111****$$$$####$$$$$$$$XXXX::::XXXX@@@@XXXX11111111",
"1111111111111111****$$$$####$$$$$$$$XXXX::::::::XXXX@@@@11111111",
"1111111111111111****$$$$####$$$$$$$$XXXX::::::::XXXX@@@@11111111",
"1111111111111111****$$$$####$$$$$$$$XXXX::::::::XXXX@@@@11111111",
"1111111111111111****$$$$####$$$$$$$$XXXX::::::::XXXX@@@@11111111",
"1111111111111111****$$$$$$$$####XXXX::::XXXX::::XXXXXXXX11111111",
"1111111111111111****$$$$$$$$####XXXX::::XXXX::::XXXXXXXX11111111",
"1111111111111111****$$$$$$$$####XXXX::::XXXX::::XXXXXXXX11111111",
"1111111111111111****$$$$$$$$####XXXX::::XXXX::::XXXXXXXX11111111",
"1111111111111111####$$$$####XXXXXXXX::::$$$$::::XXXXXXXX11111111",
"1111111111111111####$$$$####XXXXXXXX::::$$$$::::XXXXXXXX11111111",
"1111111111111111####$$$$####XXXXXXXX::::$$$$::::XXXXXXXX11111111",
"1111111111111111####$$$$####XXXXXXXX::::$$$$::::XXXXXXXX11111111",
"11111111111111111111####1111;;;;::::::::::::11111111111111111111",
"11111111111111111111####1111;;;;::::::::::::11111111111111111111",
"11111111111111111111####1111;;;;::::::::::::11111111111111111111",
"11111111111111111111####1111;;;;::::::::::::11111111111111111111",
"11111111111111111111>>>><<<<        <<<<<<<<11111111111111111111",
"11111111111111111111>>>><<<<        <<<<<<<<11111111111111111111",
"11111111111111111111>>>><<<<        <<<<<<<<11111111111111111111",
"11111111111111111111>>>><<<<        <<<<<<<<11111111111111111111",
"1111111111111111;;;;----,,,,::::::::<<<<&&&&::::1111111111111111",
"1111111111111111;;;;----,,,,::::::::<<<<&&&&::::1111111111111111",
"1111111111111111;;;;----,,,,::::::::<<<<&&&&::::1111111111111111",
"1111111111111111;;;;----,,,,::::::::<<<<&&&&::::1111111111111111",
"111111111111    <<<<OOOO    ++++&&&&    oooo&&&&1111111111111111",
"111111111111    <<<<OOOO    ++++&&&&    oooo&&&&1111111111111111",
"111111111111    <<<<OOOO    ++++&&&&    oooo&&&&1111111111111111",
"111111111111    <<<<OOOO    ++++&&&&    oooo&&&&1111111111111111",
"11111111<<<<<<<<====<<<<::::&&&&&&&&::::<<<<&&&&&&&&<<<<11111111",
"11111111<<<<<<<<====<<<<::::&&&&&&&&::::<<<<&&&&&&&&<<<<11111111",
"11111111<<<<<<<<====<<<<::::&&&&&&&&::::<<<<&&&&&&&&<<<<11111111",
"11111111<<<<<<<<====<<<<::::&&&&&&&&::::<<<<&&&&&&&&<<<<11111111",
"111111111111====%%%%1111<<<<11111111<<<<11111111&&&&111111111111",
"111111111111====%%%%1111<<<<11111111<<<<11111111&&&&111111111111",
"111111111111====%%%%1111<<<<11111111<<<<11111111&&&&111111111111",
"111111111111====%%%%1111<<<<11111111<<<<11111111&&&&111111111111"
};
