/* XPM */
static char *result[] = {
/* columns rows colors chars-per-pixel */
"64 64 10 1 ",
"  c #442434",
". c #4E4A4E",
"X c #854C30",
"o c #D27D2C",
"O c #D04648",
"+ c #DAD45E",
"@ c #8595A1",
"# c #D2AA99",
"$ c #DEEED6",
"% c None",
/* pixels */
"%%%%%%%%%%%%%%%%%%%%%%%%%%%%%%%%%%%%%%%%%%%%%%%%%%%%%%%%%%%%%%%%",
"%%%%%%%%%%%%%%%%%%%%%%%%%%%%%%%%%%%%%%%%%%%%%%%%%%%%%%%%%%%%%%%%",
"%%%%%%%%%%%%%%%%%%%%%%%%%%%%%%%%%%%%%%%%%%%%%%%%%%%%%%%%%%%%%%%%",
"%%%%%%%%%%%%%%%%%%%%%%%%%%%%%%%%%%%%%%%%%%%%%%%%%%%%%%%%%%%%%%%%",
"%%%%%%%%%%%%%%%%%%%%%%%%%%%%%%%%%%%%%%%%%%%%%%%%%%%%%%%%%%%%%%%%",
"%%%%%%%%%%%%%%%%%%%%%%%%%%%%%%%%%%%%%%%%%%%%%%%%%%%%%%%%%%%%%%%%",
"%%%%%%%%%%%%%%%%%%%%%%%%%%%%%%%%%%%%%%%%%%%%%%%%%%%%%%%%%%%%%%%%",
"%%%%%%%%%%%%%%%%%%%%%%%%%%%%%%%%%%%%%%%%%%%%%%%%%%%%%%%%%%%%%%%%",
"%%%%%%%%%%%%%%%%%%%%%%%%%%%%++++++++++++++++%%%%%%%%%%%%%%%%%%%%",
"%%%%%%%%%%%%%%%%%%%%%%%%%%%%++++++++++++++++%%%%%%%%%%%%%%%%%%%%",
"%%%%%%%%%%%%%%%%%%%%%%%%%%%%++++++++++++++++%%%%%%%%%%%%%%%%%%%%",
"%%%%%%%%%%%%%%%%%%%%%%%%%%%%++++++++++++++++%%%%%%%%%%%%%%%%%%%%",
"%%%%%%%%%%%%%%%%%%%%%%%%++++++++++++++++++++++++%%%%%%%%%%%%%%%%",
"%%%%%%%%%%%%%%%%%%%%%%%%++++++++++++++++++++++++%%%%%%%%%%%%%%%%",
"%%%%%%%%%%%%%%%%%%%%%%%%++++++++++++++++++++++++%%%%%%%%%%%%%%%%",
"%%%%%%%%%%%%%%%%%%%%%%%%++++++++++++++++++++++++%%%%%%%%%%%%%%%%",
"%%%%%%%%%%%%%%%%%%%%++++++++++++++++++++++++++++oooo%%%%%%%%%%%%",
"%%%%%%%%%%%%%%%%%%%%++++++++++++++++++++++++++++oooo%%%%%%%%%%%%",
"%%%%%%%%%%%%%%%%%%%%++++++++++++++++++++++++++++oooo%%%%%%%%%%%%",
"%%%%%%%%%%%%%%%%%%%%++++++++++++++++++++++++++++oooo%%%%%%%%%%%%",
"%%%%%%%%%%%%%%%%%%%%++++$$$$oooo++++++++oooooooooooo%%%%%%%%%%%%",
"%%%%%%%%%%%%%%%%%%%%++++$$$$oooo++++++++oooooooooooo%%%%%%%%%%%%",
"%%%%%%%%%%%%%%%%%%%%++++$$$$oooo++++++++oooooooooooo%%%%%%%%%%%%",
"%%%%%%%%%%%%%%%%%%%%++++$$$$oooo++++++++oooooooooooo%%%%%%%%%%%%",
"%%%%%%%%%%%%%%%%%%%%++++oooo####++++++++####oooooooo%%%%%%%%%%%%",
"%%%%%%%%%%%%%%%%%%%%++++oooo####++++++++####oooooooo%%%%%%%%%%%%",
"%%%%%%%%%%%%%%%%%%%%++++oooo####++++++++####oooooooo%%%%%%%%%%%%",
"%%%%%%%%%%%%%%%%%%%%++++oooo####++++++++####oooooooo%%%%%%%%%%%%",
"%%%%%%%%%%%%%%%%%%%%++++++++    ########    ####oooooooo%%%%%%%%",
"%%%%%%%%%%%%%%%%%%%%++++++++    ########    ####oooooooo%%%%%%%%",
"%%%%%%%%%%%%%%%%%%%%++++++++    ########    ####oooooooo%%%%%%%%",
"%%%%%%%%%%%%%%%%%%%%++++++++    ########    ####oooooooo%%%%%%%%",
"%%%%%%%%%%%%%%%%%%%%oooo++++    ########    ####XXXXoooo%%%%%%%%",
"%%%%%%%%%%%%%%%%%%%%oooo++++    ########    ####XXXXoooo%%%%%%%%",
"%%%%%%%%%%%%%%%%%%%%oooo++++    ########    ####XXXXoooo%%%%%%%%",
"%%%%%%%%%%%%%%%%%%%%oooo++++    ########    ####XXXXoooo%%%%%%%%",
"%%%%%%%%%%%%%%%%%%%%oooo++++################XXXXXXXXoooo%%%%%%%%",
"%%%%%%%%%%%%%%%%%%%%oooo++++################XXXXXXXXoooo%%%%%%%%",
"%%%%%%%%%%%%%%%%%%%%oooo++++################XXXXXXXXoooo%%%%%%%%",
"%%%%%%%%%%%%%%%%%%%%oooo++++################XXXXXXXXoooo%%%%%%%%",
"%%%%%%%%%%%%%%%%%%%%oooo$$$$        $$$$XXXXXXXXXXXX++++%%%%%%%%",
"%%%%%%%%%%%%%%%%%%%%oooo$$$$        $$$$XXXXXXXXXXXX++++%%%%%%%%",
"%%%%%%%%%%%%%%%%%%%%oooo$$$$        $$$$XXXXXXXXXXXX++++%%%%%%%%",
"%%%%%%%%%%%%%%%%%%%%oooo$$$$        $$$$XXXXXXXXXXXX++++%%%%%%%%",
"%%%%%%%%%%%%%%%%%%%%####@@@@$$$$$$$$@@@@####XXXXXXXX++++%%%%%%%%",
"%%%%%%%%%%%%%%%%%%%%####@@@@$$$$$$$$@@@@####XXXXXXXX++++%%%%%%%%",
"%%%%%%%%%%%%%%%%%%%%####@@@@$$$$$$$$@@@@####XXXXXXXX++++%%%%%%%%",
"%%%%%%%%%%%%%%%%%%%%####@@@@$$$$$$$$@@@@####XXXXXXXX++++%%%%%%%%",
"%%%%%%%%%%%%%%%%++++oooo@@@@@@@@@@@@@@@@XXXXXXXXXXXX++++%%%%%%%%",
"%%%%%%%%%%%%%%%%++++oooo@@@@@@@@@@@@@@@@XXXXXXXXXXXX++++%%%%%%%%",
"%%%%%%%%%%%%%%%%++++oooo@@@@@@@@@@@@@@@@XXXXXXXXXXXX++++%%%%%%%%",
"%%%%%%%%%%%%%%%%++++oooo@@@@@@@@@@@@@@@@XXXXXXXXXXXX++++%%%%%%%%",
"%%%%%%%%%%%%%%%%$$$$ooooOOOOOOOOOOOO    XXXXXXXXoooo%%%%++++%%%%",
"%%%%%%%%%%%%%%%%$$$$ooooOOOOOOOOOOOO    XXXXXXXXoooo%%%%++++%%%%",
"%%%%%%%%%%%%%%%%$$$$ooooOOOOOOOOOOOO    XXXXXXXXoooo%%%%++++%%%%",
"%%%%%%%%%%%%%%%%$$$$ooooOOOOOOOOOOOO    XXXXXXXXoooo%%%%++++%%%%",
"%%%%%%%%%%%%%%%%%%%%%%%%####%%%%%%%%####%%%%%%%%%%%%%%%%%%%%%%%%",
"%%%%%%%%%%%%%%%%%%%%%%%%####%%%%%%%%####%%%%%%%%%%%%%%%%%%%%%%%%",
"%%%%%%%%%%%%%%%%%%%%%%%%####%%%%%%%%####%%%%%%%%%%%%%%%%%%%%%%%%",
"%%%%%%%%%%%%%%%%%%%%%%%%####%%%%%%%%####%%%%%%%%%%%%%%%%%%%%%%%%",
"%%%%%%%%%%%%%%%%%%%%%%%%....%%%%%%%%....%%%%%%%%%%%%%%%%%%%%%%%%",
"%%%%%%%%%%%%%%%%%%%%%%%%....%%%%%%%%....%%%%%%%%%%%%%%%%%%%%%%%%",
"%%%%%%%%%%%%%%%%%%%%%%%%....%%%%%%%%....%%%%%%%%%%%%%%%%%%%%%%%%",
"%%%%%%%%%%%%%%%%%%%%%%%%....%%%%%%%%....%%%%%%%%%%%%%%%%%%%%%%%%"
};
