/* XPM */
static char *b394cdd838874a79b450b5c26c84571d7YbF2JkKL92owcEt[] = {
/* columns rows colors chars-per-pixel */
"64 64 49 1 ",
"  c None",
". c #6F0201",
"X c #6E0302",
"o c #6E0402",
"O c #720000",
"+ c #730101",
"@ c #770505",
"# c #7A0707",
"$ c #750808",
"% c #4B2919",
"& c #43311F",
"* c #413421",
"= c #443725",
"- c #473A28",
"; c #604D2F",
": c #695433",
"> c #6C5739",
", c #727272",
"< c #737272",
"1 c #800606",
"2 c #810707",
"3 c #800C0C",
"4 c #850D0D",
"5 c #851111",
"6 c #891111",
"7 c #8A1313",
"8 c #8C1515",
"9 c #8D1616",
"0 c #8F1818",
"q c #962020",
"w c #982222",
"e c #9C2626",
"r c #8A7243",
"t c #9B6868",
"y c #82736B",
"u c #8B7A6E",
"i c #A37A7A",
"p c #9E8451",
"a c #888079",
"s c gray60",
"d c #BAB5B5",
"f c gray",
"g c #C3B2B2",
"h c #C0C0C0",
"j c gray84",
"k c gainsboro",
"l c gray90",
"z c gray91",
"x c gray92",
/* pixels */
"                                    <<<<,,,,,,,,<<<<            ",
"                                    <<,,,,,,,,,,<<<<            ",
"                                    ,,,,,,<<,,,,<<<<            ",
"                                    ,,,,,,,<,,,,<<<<            ",
"                            OOOOOOOOffffzzzzxxxxllll,,,,        ",
"                            OOOOOOOOffffzzzzxxxxllll,,,,        ",
"                            OOOOOOOOffffzzzzxxxxllll,,,,        ",
"                            OOOOOOO.ffffzzzzxxxxllll,,,,        ",
"                    OOOOOOOOeeeeeeeeOOOOddddjjjjxxxxxxxx<<,,    ",
"                    OOOOOOOOeeeeeeeeOOOOddddjjjjxxxxxxxx<<,,    ",
"                    OOOOOOOOeeeeeeeeOOOOddddjjjjxxxxxxxx<,,,    ",
"                    OOOOOOOOeeeeeeeeOOO.ddddjjjjxxxxxxxx,,,,    ",
"                OOOO########qqqqeeee#454iiiiggggkkkkxxxxssssaaaa",
"                OOOO########qqqqeeee5##5iiiiggggkkkkxxxxssssaaaa",
"                OOOO########qqqqeeee4#5#iiiiggggkkkkxxxxssssaaaa",
"                OOOO########qqqqeeee#5#5iiiiggggkkkkxxxxssssaaaa",
"        OOOOOOOO#@@@888888888888eeeeeeee++++tttthhhhxxxxxxxx<<<,",
"        OOOOOOOO@@@@888888888888eeeeeeee++++tttthhhhxxxxxxxx<<,,",
"        OOOOOOOO@@@@888888888888eeeeeeee++++tttthhhhxxxxxxxx,,,,",
"        OOOOOOOO@@@@888888888888eeeeeeee+++Otttthhhhxxxxxxxx,,,,",
"    OOOO888888880000eeee888888888888eeeeeeee5555$$$$ffffxxxx,,,,",
"    OOOO888888880000eeee888888888888eeeeeeee5555$$$$ffffxxxx,,,,",
"    OOOO888888880000eeee888888888888eeeeeeee5555$$$$ffffxxxx,,,,",
"    OOOO888888880008eeee888888888888eeeeeeee5555$$$$ffffxxxx,,,,",
"OOOO8888eeeeeeeewwww88888888888888888888888844441111OOOO,,,,****",
"OOOO8888eeeeeeeewwww88888888888888888888888844441112OOOO,,,,****",
"OOOO8888eeeeeeeewwww88888888888888888888888844441122OOOO,,,,****",
"OOOO8888eeeeeeeewwww8888888888888888888888884444112#OOOO,,,,****",
"OOOO8888eeee8880888888888888888888882222OOOOOOOOOOOOOOOO::::****",
"OOOO8888eeee0880888888888888888888882222OOOOOOOOOOOOOOOO::::****",
"OOOO8888eeee8888888888888888888888882222OOOOOOOOOOOOOOOO::::****",
"OOOO8888eeee8008888888888888888888882222OOOOOOOOOOOOOOO.::::****",
"OOOOOOOO888888888888888888882222OOOOOOOOOOOOOOOOO...****::::****",
"OOOOOOOO888888888888888888882222OOOOOOOOOOOOOOOO....****::::****",
"OOOOOOOO888888888888888888882222OOOOOOOOOOOOOOOO....****::::****",
"OOOOOOOO888888888888888888882222OOOOOOOOOOO+OOOO....****::::****",
"****OOOOOOOO777766662222OOOOOOOOOOOOOOOO&&&&****====    ********",
"****OOOOOOOO777766662222OOOOOOOOOOOOOOOO&&&&****====    ********",
"****OOOOOOOO777766662222OOOOOOOOOOOOOOOO&&&&****====    ********",
"****OOOOOOOO777766662222OOOOOOOOOOOOOOOO&&&*****====    ********",
"::::****OOOOOOOOOOOOOOOOOOOOOOOO********                        ",
"::::****OOOOOOOOOOOOOOOOOOOOOOOO********                        ",
"::::****OOOOOOOOOOOOOOOOOOOOOOOO********                        ",
"::::****OOOOOOOOOOOOOOOOOOOOOOOO********                        ",
"uuuuyyyy%%%%XXXoOOOOOOOO%%%%%%%%yyyyyyyy                        ",
"uuuuyyyy%%%%XXX.OOOOOOOO%%%%%%%%yyyyyyyy                        ",
"uuuuyyyy%%%%XX.oOOOOOOOO%%%%%%%%yyyyyyyy                        ",
"uuuuyyyy%%%%XXooOOOOOOOO%%%%%%%%yyyyyyyy                        ",
"        ****ooooOOOOOOOO********                                ",
"        ****ooooOOOOOOOO********                                ",
"        ****ooooOOOOOOOO********                                ",
"        ****ooooOOOOOOOO********                                ",
"            pppprrrr****                                        ",
"            pppprrrr****                                        ",
"            pppprrrr****                                        ",
"            pppprrrr****                                        ",
"            >>>>;;;;****                                        ",
"            >>>>;;;;****                                        ",
"            >>>>;;;;****                                        ",
"            >>>>;;;;****                                        ",
"            ----********                                        ",
"            ----********                                        ",
"            ----********                                        ",
"            ----********                                        "
};
