/* XPM */
static char *_4588aaaacc94c72983ffa55fb637554aFsiztTqJCfN2g4u[] = {
/* columns rows colors chars-per-pixel */
"64 64 10 1 ",
"  c #343330",
". c #403F3B",
"X c #494743",
"o c #4D4B47",
"O c #55534E",
"+ c #585650",
"@ c #5E5C56",
"# c #64625C",
"$ c #6D6B63",
"% c #7C7A71",
/* pixels */
"@@  $$@@@@@@$$++  ..OO@@@@@@@@++  @@@@@@@@@@@@@@@@$$  ++$$@@@@@@",
"@@  @@@@@@@@@@%%    .o@@@@@@@@$%  @@@@@@@@@@@@@@@@@@  %$@@@@@@@@",
"@@  @@@@@@@@@@%%     .@@@@@@@@@%++@@@@@@@@@@@@@@@@@O  $@@@@@@@@@",
"@@  @@@@@@@@@@$%+     @@@@@@OO@$%%O@@@@@@@@@@@@@@@O.  @@@@@@@@@@",
"@@  @@@@@@@@@@@%%     @@@@@Ooo@@$$.X@@@@@@@@@@@@@Oo   @@@@@@@@@@",
"@@  @@@@@@@@@@@$%+    XO@@@o..@@@@  @@@@@@@@@@@@Oo.   OO@@@@@@@@",
"OO++O@@@@@@@@@@@$$     oOOO.  @@@@  @@@@@@@@@@OOo.  + .oO@@@@@@@",
"oo%%#OO@@@@@@@@@@@     .ooo   @@@@  OO@@@@@@OOoo.  +%+ ooO@@@@@@",
"##%$%oo@@@@@@@@@@@      ...   OOOO  .oOOOO$$....   %$%+#ooOOOOOO",
"%%$@$#oOO@@@@@@@OO          ++#ooo   .ooo#%%      +$@$%%##oooooo",
"$$@@@$.oo@@@@@@Oo.         +%%%###    ..#%%%     +%@@@$$%%####..",
"@@@@@@ ..OO@@@Oo. +++     +%$$$%%%++    %%$$    +%$@@@@@$$%%%%  ",
"@@@@@@   ooOOOo. +%%%    +%$@@@$$$%%+   $$@@    $$@@@@@@@@$$$$  ",
"@@@@@O   ..ooo.  %$$$+   %%@@@@@@@$$%+  @@@@    @@@@@@@@@@@@@@  ",
"O@@@X. +   ...  X$@@@$  +%$@@@@@@@@@$%++@@@@    OO@@@@@@@@@@OO  ",
"oOO@  +%+       @@@@@@  %$@@@@@@@@@@@$%%@@@@    oo@@@@@@@@@@oo  ",
".ooO++%$%++     @@@@@@  $@@@@@@@@@@@@@%%OOOO    OO@@@@@@@@@@OO  ",
" ..o%%$@$%%++   @@@@@@  @@@@@@@@@@@@@@$%ooo.    @@@@@@@@@@@@@@  ",
"   .$$@@@$$%%+  O@@@@O  @@@@@@@@@@@@@@@$...     @@@@@@@@@@@@@@  ",
"    @@@@@@@$$%+ .O@@O.  @@@@@@@@@@@@@@@@        @@@@@@@@@@@@@@  ",
"    @@@@@@@@@$%  oOOo   O@@@@@@@@@@@@@@O        @@@@@@@@@@@@@X  ",
"    @@@@@@@@@@$+ .oo.   .O@@@@@@@@@@@OO.        @@@@@@@@@@@OO   ",
"+   @@@@@@@@@@@$  ..  ++ .@@@@@@@@@@@oo  ++     O@@@@@@@@@Oo.  +",
"%+  @@@@@@@@@@@@      %%  @@@@@@@@@OO..++%%++   .O@@@@@@@Oo. ++%",
"$$  @@@@@@@@@@@O+     $$  O@@@@@@@@oo  %%$$%%    oO@@@@@Oo. +%%$",
"@@  @@@@@@@@@@Oo%++   @@  .OO@@@@OO..++$$@@$$++  .oO@@@Oo.  %$$@",
"OO  @@@@@@@@@Oo.$%%   OO   ooOOOOoo  %%@@@@@@%%++ .oOOOo.   $@@@",
"oo  @@@@@@@@Oo. @$$+  oo   ..oooo.. +$$@@@@@@$$%%+ oooo.    @@@@",
".. X@@@@@@@Oo. +@@@$  ##     ....   $@@@@@@@@@@$$%+###.     OOOO",
"   @@@@@@@@oo +$@@@@ +%%+           @@@@@@@@@@@@@$%%%%      oooo",
"  X@@@@@@@@O. $@@@@O+%$$%      ++   @@@@@@@@@@@@@@$$%%+    +####",
"  @@@@@@@@@@  @@@OO#%$@@$++   +%%+  @@@@@@@@@@@@@@@@$$%    %%%%%",
"++$O@@@@@@@@  OOOoo%%@@@@%%   $$$$  O@@@@@@@@@@@@@@@@@$X  +%$$$$",
"%%%oOO@@@@@@  .oo##$$@@@@$%+  @@@@  .OO@@@@@@@@@@@@@@@@@  $$@@@@",
"$$%#ooOOOOOO   .#%%@@@@@@@%%  O@@@   oo@@@@@@@@@@@@@OOOX  @@@@@@",
"@@$%##ooooo.   +%$$@@@@@@@$%  .OO@   .oOO@@@@@@@@@@@oo.   @@@@@@",
"@@@$%%#....    %%@@@@@@@@@@$   ooO   +#oo@@@@@@@@O$$..    @@@@@@",
"@@@@$%%       +$$@@@@@@@@@@@   .oo ++%%##OO@@@@@O#%%      @@@@@@",
"@@@@@$%+      $@@@@@@@@@@@@@    .. %%$$%%ooOOO$$#%$$ +++  O@@@@@",
"@@@@@@$$      @@@@@@@@@@@@@@     ++$$@@$$##ooo%%%$@@+%%%  .@@@@@",
"@@@@@@@@      OO@@@@@@@@@@@@     %%@@@@@@%%#..$$$@O$%$$$+  X@@@@",
"@@@@@@@@      oo@@@@@@@@@@@@   ++$$@@@@@@$%%  @@@Oo%%@@@$   @@@@",
"@@@@@@@O      OO@@@@@@@@@@@O   %%@@@@@@@@@%%  @@@o#%$@@@@X  O@@@",
"@@@@@OOo      @@@@@@@@@@@OO.  +%$@@@@@@@@@$%  @@O#%$@@@@@@  oOO@",
"OOOOOoo#+     O@@@@@@OOOOoo   %%@@@@@@@@@@@$  @@#%$@@@@@OO  .ooO",
"ooooo##%%+    .OO@@OOoooo..   %$@@@@@@@@@@@@  @@%%@@@@@@oo   ..o",
"##..#%$$$%++++ ooOOoo....     $@@@@@@@@@@@@@  OO%%@@@@@@OO+    .",
"%%  %$@@@$%%%%+..oo..         @@@@@@@@@@@@@@  .o%$@@@@@@@@$     ",
"$$  $@@@@@$$$$%  ..           @@@@@@@@@@@@@@   .$@@@@@@@@@@X  ++",
"@@  @@@@@@@@@@$+              @@@@@@@@@@@@@@    @@@@@@@@@@@@  %%",
"@@  @@@@@@@@@@@$    ++++      @@@@@@@@@@@@@@  +X@@@@@@@@@@OO  %%",
"@@  @@@@@@@@@@@@   +%%%%+     @@@@@@@@@@@@@@  $@@@@@@@@@@@oo  %%",
"@@  @@@@@@@@@@@@   %$$$$%+    @@@@@@@@@@@@OX  @@@@@@@@@@@@OO  $$",
"@@  @@@@@@@@@@@@  X$@@@@$%+   @@@@@@@@@@@Oo   @@@@@@@@@@@@@@  @@",
"@@  @@@@@@@@@@@@  @@@@@@@$%+  @@@@@@@@@@Oo.   O@@@@@@@@@@@OX  @@",
"@@  @@@@@@@@@@@@  @@@@@@@@%%  @@@@@@@@@Oo.    .X@@@@@@@@@Oo   @@",
"OO  XO@@@@@@@@OO  @@@@@@@@$%+ XO@@@@@@Oo.       @@@@@@@@Oo. ++OO",
"o.   oO@@@@@@Oo.  @@@@@@@@@%%  oOO@@OOoo        @@@@@@OOo.  %%#o",
".    .oO@@@OOo.   @@@@@@@@@$%+ .ooOOoo##++++++++OOOOOOoo.   $%%#",
"      oo@@Ooo.    @@@@@@@@@@$$  ..oo##%%%%%%%%%%##oooo..    @$$%",
"++    ##$$###     @@@@@@@@@@@@    ##%%$$$$$$$$$$%%....    +X@@@$",
"%%   +%%%%%%%     @@@@@@@@@@@@    %%$$@@@@@@@@@@$%+      +%@@@@@",
"$$   %%$$$$$%+    OO@@@@@@@@@@    $$@@@@@@@@@@@@@%%     +%$@@@@@",
"@@  +%$@@@@@%%    oo@@@@@@@@@@    @@@@@@@@@@@@@@@$%+    %%@@@@@@"
};
