/* XPM */
static char *_ad4375548e045b5d0b75f65c11ff492LGc4puUtk0XVqBpG[] = {
/* columns rows colors chars-per-pixel */
"64 64 42 1 ",
"  c #4B5C39",
". c #4E5F3C",
"X c #456621",
"o c #486923",
"O c #4B6D25",
"+ c #4F7327",
"@ c #4B6430",
"# c #4D6631",
"$ c #525A49",
"% c #555D4C",
"& c gray32",
"* c #555555",
"= c #585858",
"- c #5A5959",
"; c #5F5F5F",
": c #605F5F",
"> c #526240",
", c #546541",
"< c #556642",
"1 c #596A46",
"2 c #5B6D47",
"3 c #57604D",
"4 c #5C6453",
"5 c #5E6654",
"6 c #616957",
"7 c #637450",
"8 c #657751",
"9 c gray38",
"0 c #626060",
"q c gray39",
"w c #646363",
"e c #656565",
"r c #676767",
"t c #686868",
"y c #6C6C6C",
"u c #6D6C6C",
"i c #6D6D6D",
"p c #6E6D6D",
"a c gray44",
"s c #717171",
"d c #797979",
"f c #7B7B7B",
/* pixels */
"iiddddqqqqqq&&ddqqeefffffftttteeeqOOaaaaffffffffeqqq&&iuuuuudfff",
"iiddddqqqqqq&&ffqqttfffdffteetttqqOOaaaafdfffffdqqqq&&iuuuuudfff",
"iiqqqqqqqqqq;;ffqqqqttttttteettt%%%%aaqqqqqqeqqqqqqq==qqqqqquuee",
"iiqqqqqqqqqq;effqqqeteeteettttee%%%%aaqqqqqqqqqqqqqq==qqqqqquuqq",
"qqqqqqqqqqii;;iiiidfqqqqeqqqqqqqqq>>qqqqqqqqqqeeqqqq&&qqqqtuqqqq",
"qqqqqqqqqeii;;iiiiffqqqeqqqqqqqqqq>>qqqqqqqqqqeeqqqq&&qqqeiuqqqq",
"&&&&&&&&;;&&==*===================&&====;;;;====;;;;========;;;;",
"&&&&&&&&;;&&===========*==========&&====;;;;====;;;;========;;;;",
"qqddddetddwweetttetteqXXffteteeteetttteeq;eeaaOOttteteetetettt==",
"qeddddttddwwttteteteqqXXfdttttttttteettt;;eeaaOOeetttttttettet==",
"ddteteteettttttettet11&&ffetettettteettt;;eeaaOOttetettetteett==",
"ddtettteteeteettette11&&ffttetteeettttee;eetaaOOtettetteetttee==",
"eettteeqqqqqeqqqqqqq;q  iieqqqqqeqqqqqqq;;;;etqqeqqqqqqqqqtett==",
"ttteteqqqqqqqqqqqqqqqq  iiqqqwqqqqqqqqqq;;;ettqqqqqqqqqqqqttte==",
"====================$%XX>>==============*=**======%3============",
"====================%%XX>>=====*========*=**======33============",
"dfffffffffii==ffffff88OOffffff;;&&ffffffffffiiffff>>76ffffrrrrqq",
"fffffffffdii==ffffff88OOfdffff;;&*ffffffffffiiffff>>27ffffrrrrqq",
"tteetettetqq==fftteeet++ttetttq;&&aarrrrrruuwwrrrr==rerrrrqqqqqq",
"etttttteteqq==ffettttt++ettete;;&&aarrterriiwwrrrt==eerrrrqqqqqq",
"ettteeeeqqq;==iiqqqqeqqqqqqqqq;;XXttwwaawwwwqqqqqq==q;qqqqqqqqqq",
"tteettqqee;q==iiqqqeeqqqqeqqqq;qXXtteeaawwwwqqqqqq==;;qwqq;6qqqq",
"====>>>>>>==**========*===%%.>>>XX%%==ee========.>*****=*=======",
"====>>>>>>==**============%%>>>>XX%%==ee========,>****==========",
"==df>>dfffffffffdfii==ffff7777OOffffffffffii>>ffffffffffffffff==",
"==ff>>dffffffdffdfii==ffff7777OOffffffffffii>>ffffffffffffffff==",
"==tettettettetttttee==fftettte++trrrrrrrrrqq>>ffrrrrrrrrtrrrrr==",
"==ttettetttetteeeeqq==fdtttete++rrrrrrrreeqq>>ffrrrrrrrrrrrrrr==",
"==tettqqeqqqqqqqeq;q**iieqqqqqqqqqqqwqqqqqqq==iiqqqqqqqqqqrrrr==",
"==teteeeqqqqqqqqqqqq==iiqqqqqqqqqqqqwwqqqqq;==iiqqqqqqqqqqrrrr==",
"====================**====%%%%====%%,,==>>..>.>>>>==============",
"====================**====%%%%====%%,,==>,,$..>>>>==============",
"ffffffffff==erffffiiiiffffii==ffdfffffffffiiiiff::rrffffffffffff",
"ffffffffff==reffffpiiiffffii==fffffdffffffiippff::rrffffffffffff",
"ttaarrrrrr==errrtrrrwwrrrrqq==fftttttettrruiwwtr;;wrasrrtrrrrrrr",
"ttaarrrrrr==rerrrrrrwwterrww==ffteetttteteuiwwrr;:rraarrttrrrrrr",
"ttttqqqqOO%%44qq,,wwqqqqqqq9==iiqqqqqqqqyyq;qqqq;;;;etqqqqrrrrrr",
"ttttqqqqOO%%45qq,1wwqqqqqq;q==iiqqqqqqqqii5qqqqq;;;;ttqwqqrrrrrr",
"========oo@@@@>>==%%>>>>====**==================*=**==12========",
"========oo@@@#>>==%%>>>>====**====================**==,,========",
"iiffffffOO77OOff;;7777ffffffffffdfii==ffffffffffffff77&&ffffffii",
"ppffffffOO77OOff;;7777ffffffffffffii==ffffffffffffff77&&ffffffii",
"trrrrrrrtt2222ee;;wtaarrettttteetteq==fdetttrrrrrrrrqq&&ffiiiiii",
"ttrrrrrret2122tt;;eeaarrtteeettteeqq==fdttetrrrerrreqq&&ffiiiiii",
"etttrrwqqqqqqqqq;;;;ttewqqqqqqqqeq;q*=iiwqqqqqyy9:qq99&&iiiiiiii",
"tteerrqqqqqqqqqq;;;9ttwwqqqqqqqqqqqq==iiqqqqqqii;:qq9q&&iiiiiiii",
"==================**================**================&&========",
"==================**================**================&&========",
"ffffffffffii==ffffffffffffiiff:;&&ffffffffffff;;&&dfffffffiirrrr",
"ffffffffffii==ffffffffffffiiff;;&*fffffffffffd;;&&ffffffffuurrrr",
"ttterrrrrrqq==ffrrrrrrdd99rrrr;;&&aarrrrtttete;;&&aarrrrrrqqrrrr",
"eettrrrrrrqq==ffrrrrrrdd9wrrte;;&&aarrrrtetett99&*sarrrrrrqqrrrr",
"ttttetqqqq;q==iiqqqq;;qwwwqqqq;;&&ttqqqqwqqq55oo&&6644qqqqq9rrrr",
"teetetwwqqqq==iiqqqq;;qwwwqqqq;;&&ttqqqqqqqq55oo&&6644wwqq;qrrrr",
"========*===**====%%$$==========&&======>>%%##XX  %%============",
"============**====%%$$==========&&======>>%%##XX  %%============",
"==ffffffffffffffff77oO&&ffffffffffffffff;;7777++ff77ffffdfffff;;",
"==ffffffffffffffff77OO&&ffffffffffffffff;;7777++ff77ffffffffff;;",
"==qqrrrrrrrrrrrrrr11,<XXffrrrrrrtrrrrrrr;;reaaOOrrq;rrrrtrrrrr;;",
"==qqrrrrrrrrrrrrrr11,<XXffrrrrrrrrrrrrrr;;eraaOOrr;qrrrrrrrrrr;;",
"==rryyqqyittqqqqqqqq;q&&rr;;rr;;rrrr;;rr;;rererereq;rereq;rere;;",
"==rryyqqyitrqqqqqqqqqq&&rr;;rr;;rrrr;;rr;;erererer;qerer;qerer;;",
"================================================================",
"================================================================"
};
